<svg xmlns="http://www.w3.org/2000/svg" viewBox="0 0 422 123.5"><style>.a{fill:#4F90CD;}.b{fill:#069DD8;}</style><path d="M104 33.5c4.7 9 6 21.4 3 31.6 -3.1 12-13.2 24.2-25 29.1 -13.3 6.5-32.1 4.9-43.9-3.6C21.6 79.4 14.9 60 19.9 40.8c3-11.4 12.1-22.9 23.2-28.1 6.2-3.1 13-4.7 20.5-4.9C80.4 7.8 96.6 17.8 104 33.5M64.4 10c0.3 1.8 0.2 4.2 0.1 6.2 0-0.2 0.1-0.4 0.2-0.5 0.3-0.2 0.6 0.1 0.7 0.3 0 0.3 0.2 0.9-0.1 1 0.3 0 0.4-0.2 0.7-0.2 5.1 0.4 9.9 1.9 14.2 4.3v-0.1c0.9-0.4 2-1 2.9-0.2 1.1-0.4 1.3 0.9 2.2 1.1 1.1 0.6 2.2 1.8 2.4 3 0.2 0.4 0.8 0.7 0.9 1.1 0.7-1.5 2.2-2.6 3.4-3.9l0.8-0.3c-6.8-6.5-14.9-10-23.9-11.3C67.3 10.3 65.7 10.5 64.4 10M61.9 10.3c-9 0.4-17.1 3.4-24.2 8.6 -1.4 0.9-2.6 2.4-4 3.2h0.2c1.8 1.3 3.5 3.2 5 4.8l0.1-0.3c6.6-6 14.2-9.3 23-9.7l-0.2-0.5 -0.1-5.4L61.9 10.3zM69.6 13.6l-3.2 1.4c-0.3-0.1-0.8-0.2-1 0.1 -0.1 0.1 0 0.3 0 0.4 1.2 1.5 3.3 0.7 4.7 0.4 1.1 0.5 2.1-0.1 2.9-0.8v-0.2C72.3 13.9 70.9 13.8 69.6 13.6M64.3 19.2l0.2 0.4c0 2.1 0.1 4.3-0.1 6.3 0.9-0.3 1.7 0.1 2.6 0.1 4.4 0.7 8.6 2.1 12.1 4.9 -0.4-0.4-0.9-1-1-1.6 0.1-0.1 0.2-0.1 0.3-0.1 0-0.7-0.7-1.1-0.8-1.7 0.1-0.1 0.3-0.3 0.5-0.2 0.8 0.7 1.4 1.5 2 2.3 0.5-0.2 0.9 0.1 1.3 0.4 0.7 0.4 0.2 1.2 0.7 1.7 0.1 1.3 1.7 2.1 1.6 3.4 0 0.3 0.4 0.1 0.5 0.2l1.3 1.7c-0.2 0.3 0 0.7 0.2 0.9 0.6 0.3 0.9-0.5 1.6-0.4 0.9 0.5-0.1 1.1 0 1.6 0.3 0 0.8-0.3 1 0.1 0.1 0.5-0.4 0.8-0.6 1.1 0 0.5 0.4 0.4 0.8 0.5 0.4 0 0.7 0.5 0.5 0.8 1.1 1.2-0.3 2.4 0.2 3.7 0.4 0.8-0.1 1.6-0.6 2.2 0 1-0.9 1.6-1.2 2.4l-1.1 0.2c-0.6 0.6 0.5 1.3-0.1 1.7l2.5 0 -0.3-0.3c-0.4-1-0.3-2.3 0.3-3.2 0.4-0.8 0.5-1.8 1.2-2.5 0.2 0 0.5-0.3 0.6 0 0 0.8 0 1.6-0.4 2.3 0.7 1 0.6 2.4 0.7 3.7 2.2-0.1 4.4-0.2 6.6-0.2l-0.2-0.4c-0.3-4.2-1.2-8.1-2.9-11.6 -0.5 0-0.8 0.4-1.3 0.3 -0.2-0.1-0.3-0.2-0.3-0.4 -0.9-0.9-1.5-2-2.5-2.7 -1.1 0.1-1.7-1.2-2.7-1.3 -0.9-0.4-0.3-1.9-1.6-1.5 -0.7-0.3-1.3-0.8-1.4-1.5 0-1.2-0.2-2.4-1.3-3.2 -0.8-0.3-1.1 0.8-2 0.6 -0.4-0.2-0.2-0.8-0.4-1.2 -0.2-0.3-0.5-0.6-0.5-1 1.1-1.4-1.3-1.4-0.8-2.7 -0.1-1-1.1-1.4-1.7-2.2 -3.5-1.6-7-2.7-10.9-3.1C66.1 19.4 65.2 19.6 64.3 19.2M84.7 19.2c-0.5 0.5-0.9-0.4-1.3 0.1 0 0.2 0 0.5 0.2 0.7 0.9 0.3 1.1 1.7 2.3 1.4 0.4-0.4-0.2-0.8-0.1-1.3C85.5 19.6 85.1 19.4 84.7 19.2M44.3 25.3c-1.4 1-2.7 2.2-4.1 3.1 1.7 1.1 3 2.8 4.5 4.2l0.2 0.4c3.8-3.7 8.5-5.8 13.5-6.8 1.2-0.1 2.4-0.5 3.6-0.3 -0.1-2.1-0.3-4.4 0-6.5C55.4 19.8 49.5 21.8 44.3 25.3M94.3 23.2c-1.2 1.7-2.9 3.2-4.5 4.8l-0.8 0.2c0.5 0.1 0.6 0.7 0.9 1 1.6 0.9 2.1 2.6 3.5 3.6 0.8 1.7 2.7 3 2.7 4.9 2 4.3 3.3 8.9 3.4 14l-0.2 0.3c0.2 0 0.4-0.1 0.5-0.2l6.5-0.1c-0.4-0.6-0.2-1.5-0.4-2.3C105.2 39.4 101 30.8 94.3 23.2M32.4 23.4c-6.4 7.1-10.4 15.3-11.5 24.6 -0.2 1.3-0.1 2.7-0.4 4.1 2.2-0.2 4.7-0.2 6.9 0l-0.2-0.9c0.4-7.2 2.7-13.6 6.7-19.3 1-1.1 1.8-2.6 3-3.4 -1.5-1.4-3-3-4.5-4.5L32.4 23.4zM62 28.1l-0.4 0.2c-5.7 0.4-10.7 2.8-15 6.4 1.7 1.2 3.2 3.1 4.8 4.5 0.1-0.2 0.2-0.3 0.3-0.5 2.1-1.5 4.3-2.9 6.9-3.6 1.1-0.1 2.2-0.7 3.4-0.4C61.8 32.6 61.8 30.3 62 28.1M64.4 28.1l0.2 0.5 0 6.1 0.6-0.1c3.7 0.5 7.2 1.7 10.1 4.1l0.2 0.5c1-1.4 2.5-2.6 3.7-4l1.1-0.7 -0.5-0.2c-2.5-2.1-5.2-3.6-8.1-4.7C69.3 28.9 66.8 28.5 64.4 28.1M38.6 29.8l0 0.4 -2.4 3.1c-4 5.5-5.9 11.8-6.4 18.7l6.2-0.1 0.6 0.2c-0.2-0.2-0.2-0.4-0.3-0.7 0.5-6.4 2.7-12.1 7.2-16.9C41.6 33.1 40 31.5 38.6 29.8M81.6 36.1l-0.1 0.3c-2.1 2.2-4.3 4.4-6.3 6.6 0.1 0.3 0.4 0.5 0.6 0.7 0.1-0.5 0.4-1 0.4-1.6 0.5-0.7 1.3-0.3 2-0.1 1.1-0.2 2.1 0.2 3.2 0.2 0.8 0.4 0.9 1.4 1.6 1.8 0.2 0.3 0 0.6-0.2 0.9 0.2 1.7 1-0.4 1.9 0 0.4 0.1 0.8 0.1 1.1 0.5 0.1 0.7 1 0.6 1 1.2 -0.1 0.3-0.4 0.4-0.7 0.6 0.2 0.7-0.7 1.1-0.4 1.8 1.3 0.2 1.3-1.3 2-1.9 -0.3-1.2-0.6-2.4-1.3-3.4 -0.7-0.2-1.2-1-1.9-1.2 -1.4-0.6 0.2-1.5 0-2.3C83.8 38.6 82.6 37.4 81.6 36.1M45 36.3c-3.1 3.7-5.2 7.8-6 12.5 -0.2 1.1-0.1 2.3-0.5 3.4 0.8-0.4 1.9-0.2 2.8-0.1 -0.5-0.3-0.1-0.9-0.4-1.3 -0.1-0.6-0.2-1.3 0.4-1.6 -0.1-0.9 0.9-1.4 1-2.2 0.2-0.9 1.3-0.3 1.8-0.8 0.3-0.2 0-0.5 0-0.7 0.5-0.6 1.1-0.6 1.7-0.9 0.4-0.6 0.9-1.2 1.5-1.6 1.3 0 1.4-1.8 2.7-1.9C48.2 39.6 46.6 37.8 45 36.3M64.4 37.1c0.4 1.3 0 3.2 0.3 4.7l1.6 0.5c0.5-0.8 1.5-0.9 2-1.7 0.3-0.2 0.6 0 0.9 0.3 0.1 0.6-0.1 1.2-0.3 1.8 -0.6 1.2-2 1.4-2.9 2.2 0.5 0.3 0.8-0.2 1.2-0.4 0.6 0.1 1.1 0.6 1.5 1 0.4 0.2 0.8-0.1 1.1-0.2 0.2-1.9 2.6-1.6 3.3-3.3l-0.4 0.2c-0.2-0.2-0.6-0.1-0.6-0.5 0.4-0.4 0.9-0.9 1.4-1.1 -2-1.3-4.1-2.3-6.4-2.9C66.2 37.4 65.3 37.4 64.4 37.1M52.3 41.8h0.5c0.5 0.5 1.4 0.4 1.8 1.1 0.2 0.4-0.4 0.4-0.4 0.7 0.1 0.1 0.3 0.1 0.4 0.3 0.4 0.2 0.3-0.2 0.5-0.4 0.6-0.6 0.7 0.5 1.2 0.5 0.4-0.2 0.9-0.3 1.2 0.2 0.4-0.3 1.1 0 1.2-0.6 0.7-0.7 0.3-1.9 1.3-2.4 0.4 0.2 0 0.5 0.1 0.9 0.7 0.3 1.5-0.6 2 0.1 -0.5-1.5-0.4-3.3-0.3-4.9C58.3 37.7 55 38.9 52.3 41.8M63.3 45.5c-0.4-0.4-1.1-0.2-1.6 0 0.4 0.4 0.3 1.3 0.5 1.8 -0.7 1.1-1.8 1.4-2.9 1.7 -0.3 0.4-0.2 1.1-0.9 1.1 -0.2 0.5-1 0.8-0.7 1.5 -0.4 0.8-0.2 1.8-0.4 2.6 -1.3 0.8-0.9-1.1-1.6-1.5l-0.2 0.4c-0.3 0.1-0.5-0.1-0.6-0.3 -0.2-0.1-0.5-0.1-0.7 0 -0.3 0.5-0.7 0.9-0.6 1.6 -0.1 0.4-0.8 0.3-0.7 0.7 0.7 0 1.6-0.2 2.3-0.3 0.5 0.1 0.9-0.2 1.5-0.3 0.2 0.1 0.4 0.3 0.3 0.5h0.2c0.4-0.3 0.5-0.7 0.4-1.1 0-0.5 0.6-0.5 0.9-0.6 0.3 0.1 0.1 0.4 0.2 0.7 1 0.4-0.2 1.1-0.4 1.7 -0.3 0.4 0 1.4-0.9 1.3 -0.2 0-0.3-0.2-0.2-0.4h-0.1c0 0.4 0.2 0.9 0.6 1 0.6-0.5 0.7-1.4 1.6-1.5 0.5-0.5-0.2-1.3 0.5-1.7 1.2 0 2.4-0.5 3.4 0.4 -0.1 0.4-0.2 0.6 0.1 0.9 -0.2 0.5-0.4 1.1-0.8 1.5 0.1 0.3 0 0.7-0.2 0.9 -0.3 1.4-1.9 0.7-2.8 1.2 1.4 1.1 3.1 1.5 5 1.3 1 0 0.5-1.2 1-1.8 0.3-1.6 1.8-0.5 2.6-0.9 0.3-0.7 0.7-1.3 0.8-2.1 -0.6-0.4-0.8-1-0.6-1.7 -0.4-0.5-0.3-1.5-1.2-1.6 -0.1-0.2 0-0.4 0.1-0.5 0-0.5 0.5-0.7 0.6-1 -0.5-0.3-0.4-1.1-0.3-1.5 -0.9 0.2-1-0.9-1.6-1.1 -0.2-0.5-0.7-0.6-1.2-0.7 -1.1 0.5-1.3-0.8-2.1-1.1 -0.1-0.2-0.3-0.6 0-0.8 0.4-0.3 0.9 0 1.4-0.1L63.3 45.5zM43.7 51c-1.8 0.6 0.3 2-0.2 3.1 -0.2 0.7-0.9 0-1.4 0.3l-0.2 1.2c-0.3 0.7-1.1 0.2-1.6 0.7 -0.3 0.4 0 0.9 0.3 1.3 -0.6 1.4 1.4 1.9 1.4 3.2 0.6 0.8-0.1 2 0.8 2.7 0.2 1.5-0.2 3.4 1.1 4.6l0.2 1.4c0.3 1-1.1 0.7-1 1.6 0.3-0.1 0.3 0.2 0.4 0.3v0c1.7-2 3.7-4.1 5.8-5.9l-0.9-0.9c-1.6-2.4-2.9-4.9-3.5-7.7l-0.7-0.3c0 0.7-0.4 1.3-0.3 2l-0.2 0.3c-0.5 0-0.8-0.4-1.2-0.7 -0.1-0.2-0.3-0.7 0-0.9 0.2 0 0.4 0 0.5 0.2 0.2-0.2 0.1-0.6 0.2-0.9 0.1-0.5-0.4-1-0.1-1.5 0.4 0 0.7 0.5 0.9 0.8 0.4 0.1 0.8-0.2 1.1-0.4 0-0.4 0.5-0.9 0-1.1 0.3-0.9 0.1-1.8 0-2.7C45.2 50.8 44.3 51 43.7 51M85.8 51.8c-0.2 0.1-0.4 0-0.7 0C85.3 51.8 85.6 51.8 85.8 51.8M84.4 54l0.7 0.7c0.7 0.5 0.2 1.5 1 1.9 0.9 0.5 1.2 1.5 1.6 2.2 0.1-0.2 0.1-0.4 0.2-0.7 0.3-1.2 0.3-2.6 0.7-3.8C87.1 54.4 85.6 54.5 84.4 54M99.8 54.3l-0.4-0.3 0.2 0.6c-0.4 7.5-2.9 14.1-7.1 20 -0.8 1-1.6 2.2-2.7 2.9 1.7 1.3 3.6 3.4 5 4.9l0.2-0.3c6.9-7.8 10.8-16.9 11.2-27.5l0.3-0.5 -0.3 0.2L99.8 54.3zM90.8 54.2c0.1 1.4-0.2 2.7-0.3 4l0.7 0.8c0.2 0.3 0.1 0.8-0.2 1 -0.3 0.2-0.7 0.2-1-0.1 -0.9 3-2 6-3.9 8.6 -0.7 0.9-1.5 2.2-2.4 2.7l2 1.8c0.1-0.1 0-0.3 0.1-0.4 0-0.3 0.1-0.6 0.5-0.5 1 0 1 1 1.6 1.6 -0.1 0.9 0.6 1.5 0.4 2.3 5.7-6 8.5-13.3 9-21.4l0.3-0.4c-2 0.2-4.2 0.1-6.2 0.1L90.8 54.2zM38.3 54.2l0.3 0.5c0 1.5 0.6 2.9 0.3 4.4 0.2-0.4 0.3-1 0.9-1.3 0.1-0.4-0.5-0.5-0.5-0.9 0.4-0.8 0-2.2 1.1-2.5C39.7 54.6 39 54.7 38.3 54.2M27.5 54.3l-0.6 0.2 -6.2 0c0.4 7.2 2.3 13.7 5.5 19.7 1.6 3 3.9 5.6 6 8.4l4.5-4.6 0.5-0.2c-0.8-0.5-1.4-1.4-2.1-2.2 -0.7-0.2-1.5-0.7-1.9-1.4 -0.2-0.2 0-0.7-0.3-0.9l-0.3 0.3c-0.8 0.4-1.1-0.4-1.6-0.8 -0.7-0.4-0.4-1.7-1.3-1.5 -0.4 0-0.5-0.4-0.7-0.7 -0.9 0.1-1.1-0.9-1.6-1.3 -0.1 0.2 0 0.5-0.3 0.6 -0.9 0.2-1.2-0.9-1.8-1.3 -0.2 0.1-0.3 0.2-0.5 0.2 -0.5-0.5-0.9-1.1-0.9-1.9 -0.7-0.8-0.4-2.2-0.3-3.2 0.1-0.3 0.5-0.4 0.5-0.8 0.2-0.5 0.7-0.5 1.2-0.5 0.2 0.1 0.4 0.3 0.5 0.4 0.3-0.2 0.9 0 0.7-0.6 0.4-0.3 0.9-0.4 1.5-0.5 0.4 0.5 0.5 1 1 1.4l-0.3-0.5c-0.5-2.2-1-4.5-1.1-6.8 0-0.1-0.3-0.2-0.1-0.3l0 0.1C27.4 55.1 27.4 54.7 27.5 54.3M36.3 54.3l-0.5 0.2c-2.1 0-4.3 0.1-6.2-0.2l0.3 0.4 0.5 4.1c0.2 1.6 0.9 3.1 0.9 4.7 0.2-0.3 0.1-1 0.7-1.1 -0.2-0.5 0.5-0.9 0.1-1.3 0.2-1.1 0.3-2.2 1.3-3 1.1 0 1.2-1.6 2.4-1.6 0.6 0 0.9 0.8 1.2 1C36 56.7 36.1 55.3 36.3 54.3M47.8 57.1c0.6 1.2 1 2.5 1.6 3.7 0.4 1 1.3 1.8 1.7 2.9 0.4-0.8 1.3-1.5 1.9-2.2 0-0.3 0-0.6-0.2-0.9 -0.2-0.5 0-1.1-0.4-1.6 -0.6 0.2 0.2 0.8 0 1.1 -0.2 0.2-0.5 0-0.5-0.3 -0.5-0.1-0.9-0.5-1.1-1 0.4-0.3-0.1-0.4-0.2-0.6 -0.2-0.1-0.2-0.1-0.4 0.1 -0.1 0-0.2 0-0.3 0C49.8 57 48.4 57.8 47.8 57.1M54.9 58.9c-0.1 0.6-0.5 1.1-0.9 1.5l0.1 0c0.5-0.4 0.9-1.1 1.6-1.1L54.9 58.9zM72.6 60.7c0 0.3 0.1 0.8 0.4 1.1 0.9-0.1 0.5 1.1 1.3 1 0.4-0.1 0-0.5 0.2-0.8 -0.1-0.7-0.8-0.7-1.2-1.1 0-0.1 0-0.2 0.1-0.4C73 60.3 72.8 60.5 72.6 60.7M85.4 60.7c-0.7 0-1.4 0.3-2-0.1 -0.2-0.2-0.3 0.1-0.3 0.3 -0.2 0.3-0.4 0.8-1 0.6 -0.4-0.2-0.4-0.6-0.5-0.9 0 0.2-0.1 0.5-0.1 0.7 -0.5 0.5-0.6 1-1 1.5 -0.5 0.5-1.2 0.3-1.7 0.8 -0.1 1.1-1.3 0.9-2 1.2 0 0.1 0.1 0.2 0.2 0.3 0.3 0.1 0.7 0.1 1-0.2 0.9 0.2 0.7-0.9 1.3-1.3 0.5-0.1 0.9-0.5 1.4-0.2 0.5 0.6 0.6 1.5 0.5 2.3 -0.5 0.5-0.3 1.4-0.7 2 0.1 0.7-0.8 1.1-0.7 1.8 -0.3 0.3-0.8 0.4-1.2 0.4 -1.8-0.7-3.6-1.1-5.6-1.3 -0.2 0.1-0.3 0.2-0.3 0.4 0.8 0.4 1.8 0.5 2.7 0.8 0.8 0.2 1.3 1.1 2.2 0.9 0.8-0.4 2.2 0.3 2.7-0.6 -0.1-0.8 0.6-1.4 1-2.2l0.3-0.1c0.4 0.5 0.4 1.2 0.6 1.7 0.6-0.7 1.1-1.4 1.7-2.1 1.5-2.2 2.7-4.5 3.3-6.9C86.5 60.5 85.9 60.6 85.4 60.7M57 60.7c-1 1.6-2.8 3-4.2 4.5 2.4 2 5.1 3.2 8.1 3.7 0.2-0.6-0.1-1.4 0.2-1.9 0.2-0.5 0.8-0.5 1.3-0.4 0.3 0 0.4-0.4 0.3-0.6 -0.7-0.1-0.4-0.9-0.6-1.3 0-0.2 0.4-0.2 0.3-0.5 -0.4-0.4 0.2-0.8-0.2-1.1 0.2-0.1 0.3-0.4 0.5-0.4 -1.4 0.7-2.9-0.2-4.2-0.7C58 61.8 57.2 61.5 57 60.7M70.1 64.7c-0.1 0.2-0.3 0.5 0 0.6 0.5-0.6 1.7-0.5 1.7-1.3C71.1 63.8 70.6 64.3 70.1 64.7M72.6 66.4c-0.7 0-1.1 0.5-1.6 1 -0.6 0.4-0.9-0.7-1.5-0.4 0 0.1 0.1 0.2 0.2 0.2 0.1 0.2 0.2 0.5 0 0.7 -0.8 0.7-1.1-0.3-1.8-0.3v0.3c0 0.2 0 0.4-0.3 0.3 -0.4-0.7-1.4-0.5-1.8-1.1 -0.3-0.2-0.6 0-0.8 0.2 -0.2 0.3-0.9 0-0.7 0.5 -0.6 0.2-0.6 0.8-1 1.2 -0.7-0.1-1 0.7-1.7 0.7 0.1 0.1 0 0.4 0.2 0.4 0.4 0.2 0.8 0.2 1.3 0.2 0.7-1.1 1.8-0.2 2.7-0.6 0.6 0.1 0.2 0.7 0.6 1 0.9-0.3 1.6 0.8 2.4 0.1 0-1.1 1.1-1 1.8-1.2 1-0.6 2.2-1.4 2-2.8L72.6 66.4zM51 67c-1.3 1.6-2.9 3.3-4.5 4.6 0.7 0 1.1 0.8 1.7 1.1 3.4 2.8 7.6 4.2 11.5 5.1l-1.1-0.5c-0.8-0.9-2-2-2-3.3 0.8-0.3 0.7-1.2 1-1.8 0.7-0.7 1.5-1.1 2.4-1.3 -2.3 0.9-4.2-0.7-6.1-1.6C52.8 68.7 51.5 68.1 51 67M82.2 73.3l-0.2-0.4c-0.2 0.5-0.6 0.9-1 1.3 0 0.4-0.1 0.9 0.3 1.1 0.9 0.3 2.1 0.9 2.3 1.9 -0.4 1-2.2 1.9-1.1 3 0.4 0.5-0.5 0.7-0.4 1.2l0.3-0.4c1.3-1.1 2.8-2 4-3.3h0.2c-0.3-0.1-0.6 0.2-0.9 0 -0.6-0.3-0.7-0.9-0.7-1.5L82.2 73.3zM46 74.1l-0.1-0.2 0.1 0.3V74.1zM46.7 75.1c-0.3-0.2-0.5-0.4-0.5-0.7L46.7 75.1zM46.9 75.3c0.1 0.5 0.9 0.9 0.7 1.6 -0.4 0.6-1.2 0.6-1.8 0.6 -1.3-0.2-2.2 0.8-3.4 0.9 -1.1 0.3-1.5-1-2.5-0.9 6.3 5.5 13.4 8.9 21.8 9.3l0.6 0.4 -0.3-0.8v-5.9l-0.5 0.2C55.9 80.4 51.2 78.4 46.9 75.3M88.5 79.5l-0.1-0.5c-0.6 1.2-2 2-3.1 3 -1.5 1.5-3.8 1.8-4.6 3.9 -0.8 0.7-1.1 1.8-2.2 2.2 -0.4 1.1-1.5 1-2.2 1.8 -1.9 1.7-3.1-1.1-4.8-1.4l-3.4 0.6c-1.2 0-2.4 0.4-3.5 0 0.2 2.3 0.2 4.8 0 7.1l0.4-0.3c10.8-0.5 20.2-4.6 28.2-11.9L88.5 79.5zM38.5 79.4l-0.1 0.3 -4.6 4.7c7 6.1 14.9 10 24 11.2 1.4 0.2 3.1 0.1 4.5 0.5l-0.3-0.5v-6.1l0.2-0.3 -0.7 0.2C52.7 88.7 44.9 85.6 38.5 79.4M64.2 81l0.3 0.5c0 1.8 0.2 3.7 0 5.6 1.7-0.6 3.6-0.5 5.4-0.8 -0.4-0.1-0.7-0.2-1-0.6 -1.1-0.1-1.6-1.2-1.9-2 -0.2-0.6 0.2-1.1 0.5-1.6 -0.4-0.9-1.8-0.2-2.7-0.6C64.7 81.3 64.5 81 64.2 81" class="a"/><path d="M105.6 16.3c3.3 2.9 4.8 6.8 5.8 10.7l0.5 1.3c-4.8-3.4-9.1-8.1-12.2-13l-3.7-3.8C99.2 13 102.8 13.8 105.6 16.3" class="a"/><path d="M22 22.2c-2.2 2.7-5 4.5-7.5 6.9 1.3-2.8 1.4-6.1 3.3-8.7 2.7-4.7 7.8-6.4 12.3-8.2C26.7 15.1 24.4 18.8 22 22.2" class="a"/><path d="M117.3 27.2c1.1 4.7-0.5 9.3 0.5 14.1l0 0c-2.6-5.1-8-7.4-11.8-11.5 -2.2-2.4-3.1-5.3-3.7-8.4 2.2 5.2 8 6.3 11.3 10.7 1.1 1 1.5 2.4 2.2 3.6l0.1-0.1c-1.9-4.1-2.6-8.7-3.9-13.1 -0.7-1.9-2-3.8-3.8-4.9C112.6 18.4 116.4 23 117.3 27.2" class="a"/><path d="M17.9 18.3c-4.5 3.1-4.2 8.5-5.6 13.1 -0.4 1.7-1.2 3.2-1.6 5l0.1 0.1c0.7-2 2-3.8 3.7-5.4 3.2-2.9 7.8-4.7 9.4-9.1 -0.1 6-5.1 10.7-9.9 14.1 -2 1.7-3.9 3.7-5 5.9 -0.1-1.5 0.2-3 0.1-4.7 -0.5-5.2-0.9-11.2 2.8-15.1C13.5 20.3 15.6 18.9 17.9 18.3" class="a"/><path d="M120.1 28.2c4 5.4 4.9 14 2 20.2 -1.1 2.6-1.8 5.4-2.3 8.3 -0.2-0.5-0.2-1.2-0.4-1.7 -1.6-6-7.3-10.4-9.7-16.1 -0.7-1.9-1.4-3.8-1.7-5.8 2.5 4.7 8.7 7.1 10.4 12.2 0.7 1.3 0.7 2.9 1.1 4.3 0.1 0 0.2-0.1 0.2-0.2 -0.7-5.3-0.5-10.8 0.2-16 0-2.8-0.3-5.6-1.9-7.8C118.9 26.2 119.4 27.3 120.1 28.2" class="a"/><path d="M8.4 26.5C5 31.7 7.8 38.3 7.6 44.2l-0.5 6c0.1 0 0.1 0.2 0.2 0.2 0.2-0.7 0.2-1.4 0.4-2.1 0.8-4.9 5-8.3 8.7-11.7 0.8-0.9 1.5-1.8 1.9-2.8 -0.3 2.4-1.1 4.9-2.1 7.1 -2.9 5.6-8.2 10.2-9.2 16.7 -0.5-6.2-4.7-10.8-4.2-17.3 -0.1-5.3 2.1-9.6 5.2-13.6C8.2 26.6 8.3 26.5 8.4 26.5" class="a"/><path d="M123.8 63.2c-2.4 3.4-5.2 6.5-7.4 9.9 0.2-2.7 0.6-6-0.5-8.6 -1.8-5.5-3.4-11.1-3.9-17.2l0.1-2.3c1.4 6.2 7.4 10.4 7.1 17.4 0.1 1.7-0.4 3.1-0.7 4.6l0.1 0.1 0.3-0.3c0.9-3.4 1.3-7 2.7-10.1 2-4.6 4.5-9.2 3.5-14.7C128 48.5 127.1 57.2 123.8 63.2" class="a"/><path d="M6.6 61.1c0.7 2.3 0.8 4.7 1.7 6.9 0.1 0 0.2 0 0.2-0.1 -2.3-6.5 1-12.5 4.4-17.5 0.8-1.4 1.3-2.9 1.7-4.5 0.4 2.9-0.4 6.3-0.8 9.3 -0.8 3.9-2 7.5-3.1 11.3 -0.7 2.3-0.5 5-0.2 7.4l-0.3-0.3c-2.5-4.5-7.3-8-8.7-13 -1.2-3.9-2-8.5-1.2-12.8 0.4-1.7 0.7-3.4 1.4-4.9C0.4 49.9 5.1 55 6.6 61.1" class="a"/><path d="M114.5 73.9c-0.2 3-1.1 5.7-2.7 8.2h0.3c2.2-2.8 3.8-5.8 6.4-8.5 3.9-3.8 7.9-7.6 8.4-12.9 1.3 8.7-3.6 16.4-10.8 21.4 -3 2-6 3.8-8.9 6v-0.3c4.4-7.3 2.2-17.4 5-25.4l1-2.7C112.5 64.6 114.7 68.8 114.5 73.9" class="a"/><path d="M18 83.8c0.5 1.7 1.4 3.1 2.1 4.7 -6.7-4.6-15.8-8.9-18.8-17.3 -1.3-2.9-1.4-6.5-1.1-9.8 0.5 7.4 8.5 11.4 12.3 17.5 0.9 1.3 1.6 2.7 2.8 3.7 -0.2-0.8-0.9-1.5-1.2-2.3 -1.3-2.6-1.8-5.7-1.5-8.8 0.4-3.8 2-7.3 1.4-11.3C17.1 67.4 16.1 76.2 18 83.8" class="a"/><path d="M104.5 89.3c-1.1 2-2.8 3.9-4.6 5.5 0.6 0 1.1-0.5 1.6-0.9 4.8-4.8 11.1-6.2 16.3-10.1 2.1-1.7 4-3.8 4.9-6.2 -1 8-8.9 15.5-16.4 17.9 -3.9 1-8 1.4-11.8 2.7 6.4-5.5 6-13.9 10.3-20.3 1.3-1.8 2.5-3.7 4-5.5C106.4 77.6 107.5 84.3 104.5 89.3" class="a"/><path d="M24.2 82.6c2.2 5.5 3.1 11.8 8.3 16 -5.6-1.8-12.2-1.3-17.2-4.8C10 90.5 5.1 84.8 4.1 78.6c3.7 8.5 13.1 9.2 19.4 14.3 1.1 1 2.4 1.9 3.7 2.5l0.1-0.1c-1.4-1.3-3.1-2.8-4.1-4.5C19.4 85.8 20.7 78.6 18 73.1 20.5 76.1 22.7 79.2 24.2 82.6" class="a"/><path d="M90.9 99.1c-1.4 0.9-3.1 1.1-4.5 1.7 2 0 3.9-0.7 5.9-0.9 7.4-1.2 15.9 0 21.1-6.3 -1.9 4.4-6.8 8.1-11.2 9.6 -7.6 2.9-15.2-0.7-22.5-1.8l-1.4-0.2v0c3.5-0.8 6.8-1.8 9.6-4.3 4.1-3.9 7.7-7.9 12.2-11C96.8 90.2 96.5 96.3 90.9 99.1" class="a"/><path d="M38.9 97c2.9 2.5 6.3 3.7 10 4.4 -0.9 0.3-2 0.2-3 0.5 -6.5 1.6-13.8 4.3-20.8 1.9 -4.5-1.4-9.2-5-11.4-9.4 6 6.8 15.8 4.5 23.7 6.3 1.1 0.2 2.2 0.6 3.4 0.4 -0.9-0.6-2.3-0.5-3.3-1.1 -6.2-2.2-7.2-9-10.6-13.5C31.3 89.4 34.9 93.3 38.9 97" class="a"/><path d="M87.8 106.2c4.9 1.8 11.2 1.3 15.3-1.7 -2.1 2.7-5.1 4.6-8.1 5.7 -6.7 2.5-13.8-0.1-19-4.1 -2.1-1.3-4-3.3-6.8-3.1 -1 0-2 0-2.8 0.3 5.1 2.4 9.9 5.7 14.2 9.9 -0.7 0.8-1.7 1.6-2.6 2.3 -4.2-4.5-8.8-8.9-14-11.4 -1 0.1-2 0.7-2.9 1.2 -4.2 2.7-8.4 6.1-11.6 10.3l-2.7-2.2c4.3-4.4 9.1-7.8 14.3-10.2 -5.1-1.6-8.5 2.7-12.4 4.9 -4.5 3.2-11.1 4.7-16.5 2.5 -2.9-1.1-5.8-2.8-7.9-5.4 4.3 3 10.7 3.3 15.6 1.3 6.6-2.9 13.4-6.5 21.4-4.7 1.2 0 2.5 1.3 3.6 0.2 5.9-1.5 12.6-0.5 17.6 2.2L87.8 106.2z" class="a"/><path d="M329.8 39.6c0.7-1.2 1.5-2.3 2.5-3.2l-8.2-9c-2.1 2-3.8 4.3-5.2 6.8L329.8 39.6z" fill="#5FBA46"/><path d="M350 33.2c1.2 0.6 2.4 1.3 3.5 2.2l8.3-9c-2.2-1.9-4.6-3.4-7.3-4.6L350 33.2z" fill="#D2A02B"/><path d="M368.9 35.9l-11 5.5c0.5 1.2 0.9 2.5 1.1 3.9l12.2-1.2C370.9 41.2 370.1 38.4 368.9 35.9" fill="#C12034"/><path d="M357.2 39.8l11-5.5c-1.4-2.5-3.1-4.8-5.1-6.8l-8.3 9C355.7 37.5 356.5 38.6 357.2 39.8" fill="#2C9947"/><path d="M327.6 47.6c0-0.2 0-0.5 0-0.7l-12.2-1.1c0 0.6-0.1 1.2-0.1 1.8 0 2.3 0.3 4.6 0.8 6.8l11.8-3.4C327.7 49.9 327.6 48.7 327.6 47.6" fill="#49773C"/><path d="M355.7 57.6c-0.9 1.1-1.9 2-3 2.8l6.4 10.4c2.4-1.6 4.5-3.6 6.3-5.9L355.7 57.6z" fill="#FCB614"/><path d="M359.2 47.6c0 1.2-0.1 2.3-0.4 3.4l11.8 3.4c0.5-2.2 0.8-4.4 0.8-6.7 0-0.6 0-1.2-0.1-1.7l-12.2 1.2C359.2 47.2 359.2 47.4 359.2 47.6" fill="#EE4128"/><path d="M331.4 57.8l-9.7 7.4c1.8 2.2 4 4.2 6.4 5.8l6.4-10.4C333.3 59.8 332.3 58.9 331.4 57.8" fill="#F89D26"/><path d="M327.8 45.1c0.2-1.4 0.6-2.7 1.2-3.9l-11-5.5c-1.2 2.6-2 5.4-2.4 8.3L327.8 45.1z" fill="#007DBA"/><path d="M357.6 71.8l-6.4-10.4c-1.2 0.7-2.4 1.2-3.8 1.5l2.3 12.1C352.5 74.3 355.2 73.2 357.6 71.8" fill="#8E1939"/><path d="M358.4 52.6c-0.4 1.3-1 2.4-1.7 3.5l9.8 7.4c1.6-2.3 2.8-4.8 3.7-7.5L358.4 52.6z" fill="#00ACD7"/><path d="M345.7 63.2c-0.7 0.1-1.5 0.2-2.3 0.2 -0.6 0-1.2 0-1.8-0.1l-2.3 12.1c1.3 0.2 2.7 0.3 4.1 0.3 1.5 0 3.1-0.1 4.6-0.4L345.7 63.2z" fill="#F26E26"/><path d="M344.4 31.8c1.4 0.1 2.7 0.3 3.9 0.8l4.4-11.4c-2.6-0.9-5.4-1.5-8.3-1.6V31.8z" fill="#E81F2E"/><path d="M339.8 63c-1.4-0.3-2.7-0.8-3.9-1.5l-6.4 10.4c2.5 1.4 5.2 2.5 8.1 3.1L339.8 63z" fill="#DF1782"/><path d="M338.7 32.5c1.3-0.4 2.6-0.6 4-0.7V19.5c-2.9 0.1-5.8 0.6-8.4 1.5L338.7 32.5z" fill="#1F3668"/><path d="M330.3 56.4c-0.8-1.1-1.4-2.4-1.9-3.7l-11.8 3.4c0.9 2.8 2.2 5.4 3.9 7.8L330.3 56.4z" fill="#CC8A2A"/><path d="M333.6 35.2c1-0.8 2.2-1.5 3.4-2.1l-4.4-11.4c-2.6 1.1-5.1 2.6-7.2 4.4L333.6 35.2z" fill="#005589"/><path d="M158.7 8.4c0-0.4-0.2-0.8-0.5-1 -0.3-0.2-0.9-0.5-1.7-0.7 -0.8-0.3-1.4-0.5-1.9-0.8 -1.3-0.7-1.9-1.6-1.9-2.8 0-0.6 0.2-1.1 0.5-1.6 0.3-0.5 0.8-0.8 1.5-1.1C155.4 0.1 156.1 0 156.9 0c0.8 0 1.5 0.1 2.1 0.4 0.6 0.3 1.1 0.7 1.5 1.2 0.3 0.5 0.5 1.1 0.5 1.8h-2.3c0-0.5-0.2-0.9-0.5-1.2 -0.3-0.3-0.8-0.4-1.4-0.4 -0.6 0-1 0.1-1.3 0.4 -0.3 0.2-0.5 0.6-0.5 0.9 0 0.4 0.2 0.7 0.5 0.9 0.4 0.2 0.9 0.5 1.6 0.7 1.3 0.4 2.3 0.9 2.9 1.5 0.6 0.6 0.9 1.3 0.9 2.2 0 1-0.4 1.7-1.1 2.3 -0.7 0.6-1.7 0.8-3 0.8 -0.9 0-1.6-0.2-2.3-0.5 -0.7-0.3-1.2-0.7-1.6-1.3 -0.4-0.5-0.6-1.2-0.6-1.9h2.3c0 1.2 0.7 1.8 2.2 1.8 0.5 0 1-0.1 1.3-0.3C158.6 9.1 158.7 8.8 158.7 8.4z" class="a"/><path d="M171.1 0.2V7.5c0 1.2-0.4 2.2-1.1 2.9 -0.8 0.7-1.8 1.1-3.1 1.1 -1.3 0-2.3-0.3-3.1-1 -0.8-0.7-1.2-1.6-1.2-2.8V0.2h2.3v7.4c0 0.7 0.2 1.3 0.5 1.6 0.4 0.3 0.8 0.5 1.5 0.5 1.3 0 2-0.7 2-2V0.2H171.1z" class="a"/><path d="M178.7 8.4c0-0.4-0.2-0.8-0.5-1 -0.3-0.2-0.9-0.5-1.7-0.7 -0.8-0.3-1.4-0.5-1.9-0.8 -1.3-0.7-1.9-1.6-1.9-2.8 0-0.6 0.2-1.1 0.5-1.6 0.3-0.5 0.8-0.8 1.5-1.1C175.4 0.1 176.1 0 176.9 0c0.8 0 1.5 0.1 2.1 0.4 0.6 0.3 1.1 0.7 1.5 1.2 0.3 0.5 0.5 1.1 0.5 1.8h-2.3c0-0.5-0.2-0.9-0.5-1.2 -0.3-0.3-0.8-0.4-1.4-0.4 -0.6 0-1 0.1-1.3 0.4 -0.3 0.2-0.5 0.6-0.5 0.9 0 0.4 0.2 0.7 0.5 0.9 0.4 0.2 0.9 0.5 1.6 0.7 1.3 0.4 2.3 0.9 2.9 1.5 0.6 0.6 0.9 1.3 0.9 2.2 0 1-0.4 1.7-1.1 2.3 -0.7 0.6-1.7 0.8-3 0.8 -0.9 0-1.6-0.2-2.3-0.5 -0.7-0.3-1.2-0.7-1.6-1.3 -0.4-0.5-0.6-1.2-0.6-1.9h2.3c0 1.2 0.7 1.8 2.2 1.8 0.5 0 1-0.1 1.3-0.3C178.6 9.1 178.7 8.8 178.7 8.4z" class="a"/><path d="M191 2h-3.4v9.3h-2.3V2h-3.4V0.2h9.1V2z" class="a"/><path d="M197.7 9h-4l-0.8 2.3h-2.4l4.2-11.2h2.1l4.2 11.2h-2.4L197.7 9zM194.3 7.2h2.8l-1.4-4.2L194.3 7.2z" class="a"/><path d="M204.4 11.3h-2.3V0.2h2.3V11.3z" class="a"/><path d="M215.6 11.3h-2.3l-4.5-7.3v7.3h-2.3V0.2h2.3l4.5 7.4V0.2h2.3V11.3z" class="a"/><path d="M224.1 9h-4l-0.8 2.3h-2.4l4.2-11.2h2.1l4.2 11.2h-2.4L224.1 9zM220.7 7.2h2.8l-1.4-4.2L220.7 7.2z" class="a"/><path d="M228.4 11.3V0.2h3.9c1.4 0 2.4 0.3 3.1 0.8 0.7 0.5 1.1 1.3 1.1 2.3 0 0.5-0.1 1-0.4 1.4 -0.3 0.4-0.7 0.7-1.2 0.9 0.6 0.1 1 0.4 1.4 0.9 0.3 0.4 0.5 1 0.5 1.6 0 1.1-0.3 1.9-1 2.4 -0.7 0.6-1.7 0.8-2.9 0.8H228.4zM230.7 4.8h1.7c1.2 0 1.7-0.5 1.7-1.4 0-0.5-0.1-0.9-0.4-1.1 -0.3-0.2-0.8-0.3-1.4-0.3h-1.6V4.8zM230.7 6.5v3h2c0.5 0 1-0.1 1.3-0.4 0.3-0.3 0.5-0.6 0.5-1.1 0-1-0.5-1.5-1.6-1.6H230.7z" class="a"/><path d="M240.7 9.5h4.9v1.8h-7.2V0.2h2.3V9.5z" class="a"/><path d="M253.6 6.5h-4.4v3h5.2v1.8h-7.5V0.2h7.5v1.9h-5.2v2.7h4.4V6.5z" class="a"/><path d="M259.6 11.3V0.2h3.4c1 0 1.9 0.2 2.6 0.7 0.8 0.4 1.4 1.1 1.8 1.9 0.4 0.8 0.7 1.7 0.7 2.8v0.5c0 1-0.2 2-0.6 2.8 -0.4 0.8-1 1.4-1.8 1.9 -0.8 0.4-1.7 0.7-2.6 0.7H259.6zM261.9 2v7.5h1.1c0.9 0 1.6-0.3 2.1-0.9 0.5-0.6 0.7-1.4 0.7-2.5V5.5c0-1.1-0.2-2-0.7-2.6 -0.5-0.6-1.2-0.9-2.1-0.9H261.9z" class="a"/><path d="M276.6 6.5h-4.4v3h5.2v1.8h-7.5V0.2h7.5v1.9h-5.2v2.7h4.4V6.5z" class="a"/><path d="M282.8 8.6l2.5-8.4h2.6l-3.9 11.2h-2.4l-3.9-11.2h2.6L282.8 8.6z" class="a"/><path d="M295.7 6.5h-4.4v3h5.2v1.8h-7.5V0.2h7.5v1.9h-5.2v2.7h4.4V6.5z" class="a"/><path d="M300.1 9.5h4.9v1.8h-7.2V0.2h2.3V9.5z" class="a"/><path d="M315 6c0 1.1-0.2 2.1-0.6 2.9 -0.4 0.8-0.9 1.5-1.7 1.9 -0.7 0.5-1.6 0.7-2.5 0.7 -0.9 0-1.8-0.2-2.5-0.7 -0.7-0.4-1.3-1.1-1.7-1.9 -0.4-0.8-0.6-1.8-0.6-2.8V5.5c0-1.1 0.2-2.1 0.6-2.9 0.4-0.8 1-1.5 1.7-1.9C308.5 0.2 309.3 0 310.2 0c0.9 0 1.8 0.2 2.5 0.7 0.7 0.4 1.3 1.1 1.7 1.9 0.4 0.8 0.6 1.8 0.6 2.9V6zM312.7 5.5c0-1.2-0.2-2.1-0.6-2.7 -0.4-0.6-1-0.9-1.8-0.9 -0.8 0-1.4 0.3-1.8 0.9 -0.4 0.6-0.6 1.5-0.6 2.6v0.5c0 1.1 0.2 2 0.6 2.7 0.4 0.6 1 0.9 1.8 0.9 0.8 0 1.4-0.3 1.8-0.9 0.4-0.6 0.6-1.5 0.6-2.7V5.5z" class="a"/><path d="M319 7.4v3.9h-2.3V0.2h4.4c0.8 0 1.6 0.2 2.2 0.5 0.6 0.3 1.1 0.7 1.5 1.3 0.3 0.6 0.5 1.2 0.5 1.9 0 1.1-0.4 2-1.1 2.6 -0.7 0.6-1.8 0.9-3.1 0.9H319zM319 5.5h2.1c0.6 0 1.1-0.1 1.4-0.4 0.3-0.3 0.5-0.7 0.5-1.2 0-0.5-0.2-1-0.5-1.3 -0.3-0.3-0.8-0.5-1.3-0.5h-2.1V5.5z" class="a"/><path d="M329.8 0.2l2.9 8.1 2.9-8.1h3v11.2h-2.3V8.3l0.2-5.3 -3 8.3h-1.6l-3-8.3 0.2 5.3v3.1h-2.3V0.2H329.8z" class="a"/><path d="M347.3 6.5h-4.4v3h5.2v1.8h-7.5V0.2h7.5v1.9h-5.2v2.7h4.4V6.5z" class="a"/><path d="M358.5 11.3h-2.3l-4.5-7.3v7.3h-2.3V0.2h2.3l4.5 7.4V0.2h2.3V11.3z" class="a"/><path d="M368.7 2h-3.4v9.3h-2.3V2h-3.4V0.2h9.1V2z" class="a"/><path d="M382.3 9.9c-0.4 0.5-1 0.9-1.8 1.2 -0.8 0.3-1.6 0.4-2.5 0.4 -1 0-1.8-0.2-2.5-0.6 -0.7-0.4-1.3-1-1.7-1.8 -0.4-0.8-0.6-1.7-0.6-2.8v-0.8c0-1.1 0.2-2.1 0.6-2.9 0.4-0.8 0.9-1.4 1.6-1.9C376.1 0.2 376.9 0 377.8 0c1.3 0 2.4 0.3 3.1 0.9 0.7 0.6 1.2 1.6 1.3 2.8h-2.2c-0.1-0.6-0.3-1.1-0.7-1.4 -0.3-0.3-0.8-0.4-1.4-0.4 -0.8 0-1.4 0.3-1.8 0.9 -0.4 0.6-0.6 1.5-0.6 2.6v0.7c0 1.2 0.2 2.1 0.7 2.7 0.4 0.6 1.1 0.9 2 0.9 0.9 0 1.5-0.2 1.8-0.6V7.2h-2.1V5.5h4.4V9.9z" class="a"/><path d="M393.3 6c0 1.1-0.2 2.1-0.6 2.9 -0.4 0.8-0.9 1.5-1.7 1.9 -0.7 0.5-1.6 0.7-2.5 0.7 -0.9 0-1.8-0.2-2.5-0.7s-1.3-1.1-1.7-1.9c-0.4-0.8-0.6-1.8-0.6-2.8V5.5c0-1.1 0.2-2.1 0.6-2.9 0.4-0.8 1-1.5 1.7-1.9C386.8 0.2 387.6 0 388.6 0c0.9 0 1.8 0.2 2.5 0.7 0.7 0.4 1.3 1.1 1.7 1.9 0.4 0.8 0.6 1.8 0.6 2.9V6zM391 5.5c0-1.2-0.2-2.1-0.6-2.7 -0.4-0.6-1-0.9-1.8-0.9 -0.8 0-1.4 0.3-1.8 0.9 -0.4 0.6-0.6 1.5-0.6 2.6v0.5c0 1.1 0.2 2 0.6 2.7 0.4 0.6 1 0.9 1.8 0.9 0.8 0 1.4-0.3 1.8-0.9 0.4-0.6 0.6-1.5 0.6-2.7V5.5z" class="a"/><path d="M401.1 9h-4l-0.8 2.3h-2.4l4.2-11.2h2.1l4.2 11.2h-2.4L401.1 9zM397.7 7.2h2.8l-1.4-4.2L397.7 7.2z" class="a"/><path d="M407.7 9.5h4.9v1.8h-7.2V0.2h2.3V9.5z" class="a"/><path d="M419.7 8.4c0-0.4-0.2-0.8-0.5-1 -0.3-0.2-0.9-0.5-1.7-0.7 -0.8-0.3-1.4-0.5-1.9-0.8 -1.3-0.7-1.9-1.6-1.9-2.8 0-0.6 0.2-1.1 0.5-1.6 0.3-0.5 0.8-0.8 1.5-1.1C416.4 0.1 417.1 0 417.9 0c0.8 0 1.5 0.1 2.1 0.4 0.6 0.3 1.1 0.7 1.5 1.2C421.8 2.2 422 2.8 422 3.5h-2.3c0-0.5-0.2-0.9-0.5-1.2 -0.3-0.3-0.8-0.4-1.4-0.4 -0.6 0-1 0.1-1.3 0.4 -0.3 0.2-0.5 0.6-0.5 0.9 0 0.4 0.2 0.7 0.5 0.9 0.4 0.2 0.9 0.5 1.6 0.7 1.3 0.4 2.3 0.9 2.9 1.5C421.7 6.8 422 7.5 422 8.4c0 1-0.4 1.7-1.1 2.3 -0.7 0.6-1.7 0.8-3 0.8 -0.9 0-1.6-0.2-2.3-0.5 -0.7-0.3-1.2-0.7-1.6-1.3 -0.4-0.5-0.6-1.2-0.6-1.9h2.3c0 1.2 0.7 1.8 2.2 1.8 0.5 0 1-0.1 1.3-0.3C419.5 9.1 419.7 8.8 419.7 8.4z" class="a"/><path d="M185.2 64.3h-16.2l-3.1 10.6h-13.3l17.8-54.6h6.8v0l0 0h6.8l17.8 54.6h-13.3L185.2 64.3zM171.9 54.5h10.4l-5.1-16.9h-0.2L171.9 54.5z" class="b"/><path d="M247.1 56.5l0.1 0.2c0.1 6.2-1.7 10.9-5.3 14.1 -3.6 3.2-8.7 4.8-15.3 4.8 -6.7 0-12.2-2.1-16.2-6.2 -4.1-4.1-6.1-9.5-6.1-16.2V41.9c0-6.6 2-12 5.9-16.2s9.1-6.2 15.6-6.2c6.9 0 12.3 1.6 16.1 4.8 3.8 3.2 5.6 7.9 5.5 14.1l-0.1 0.2h-12.3c0-3.3-0.7-5.7-2.1-7.2s-3.8-2.2-7-2.2c-2.8 0-5 1.1-6.6 3.4 -1.5 2.3-2.3 5.3-2.3 9.1v11.5c0 3.8 0.8 6.9 2.5 9.2 1.7 2.3 4.1 3.4 7.2 3.4 2.9 0 5-0.7 6.3-2.2 1.3-1.4 1.9-3.9 1.9-7.3H247.1z" class="b"/><path d="M291 30.1h-14.4v44.8h-12.7V30.1h-14.2v-9.7h41.3V30.1z" class="b"/><path d="M309.6 74.9h-12.6V20.3h12.6V74.9z" class="b"/><path d="M422 74.9h-12.6l-20-34.3 -0.2 0.1v34.2h-12.7V20.3h12.7l20 34.3 0.2-0.1V20.3H422V74.9z" class="b"/><path d="M183.2 109.7l0.1 0.2c0.1 4.5-1.2 7.8-3.8 10.1 -2.6 2.3-6.3 3.5-11 3.5 -4.8 0-8.7-1.5-11.6-4.4 -2.9-3-4.4-6.8-4.4-11.6v-8.2c0-4.8 1.4-8.6 4.2-11.6 2.8-3 6.5-4.4 11.2-4.4 5 0 8.8 1.2 11.5 3.5 2.7 2.3 4 5.7 4 10.1l-0.1 0.2h-8.8c0-2.4-0.5-4.1-1.5-5.2 -1-1-2.7-1.6-5-1.6 -2 0-3.6 0.8-4.7 2.5 -1.1 1.6-1.6 3.8-1.6 6.5v8.2c0 2.7 0.6 4.9 1.8 6.6 1.2 1.6 2.9 2.5 5.2 2.5 2.1 0 3.6-0.5 4.5-1.6 0.9-1 1.4-2.8 1.4-5.2H183.2z" class="b"/><path d="M208.8 115.3H197.1l-2.3 7.6h-9.6l12.8-39.1h4.9v0l0 0h4.9l12.8 39.1h-9.6L208.8 115.3zM199.2 108.3h7.4l-3.7-12.1h-0.2L199.2 108.3z" class="b"/><path d="M244 111.2h0.2l8.8-27.4h12v39.1h-9.1V97.7l-0.2 0 -8.6 25.2h-6.1L232.6 98.1l-0.2 0v24.8h-9.1V83.8h11.9L244 111.2z" class="b"/><path d="M280.3 109.5v13.4h-9.1V83.8h14.9c4.6 0 8.3 1.2 11 3.5 2.7 2.4 4.1 5.5 4.1 9.3s-1.4 7-4.1 9.3c-2.7 2.4-6.4 3.5-11 3.5H280.3zM280.3 102.5h5.9c2 0 3.5-0.5 4.5-1.6 1-1.1 1.6-2.5 1.6-4.2 0-1.7-0.5-3.2-1.5-4.3 -1-1.1-2.5-1.7-4.5-1.7h-5.9V102.5z" class="b"/><path d="M322 115.3h-11.6l-2.3 7.6h-9.6l12.8-39.1h4.9v0l0 0h4.9l12.8 39.1h-9.6L322 115.3zM312.5 108.3h7.4l-3.7-12.1h-0.2L312.5 108.3z" class="b"/><path d="M346.3 122.9h-9V83.8h9.1V122.9z" class="b"/><path d="M383.9 117.5c-1.4 1.6-3.3 3.1-5.7 4.2 -2.5 1.2-5.6 1.7-9.5 1.7 -4.9 0-8.8-1.5-11.8-4.5 -3-3-4.5-6.8-4.5-11.6v-8.2c0-4.7 1.5-8.6 4.4-11.5 2.9-3 6.7-4.5 11.4-4.5 5 0 8.8 1.1 11.3 3.3s3.8 5.3 3.7 9.1l-0.1 0.2h-8.5c0-1.9-0.5-3.3-1.5-4.3 -1-0.9-2.6-1.4-4.6-1.4 -2.1 0-3.8 0.8-5.1 2.5 -1.3 1.7-1.9 3.8-1.9 6.5v8.2c0 2.7 0.6 4.9 1.9 6.6 1.3 1.7 3.1 2.5 5.4 2.5 1.7 0 3-0.1 3.9-0.4 1-0.3 1.7-0.6 2.3-1.1v-7h-6.9v-6h16V117.5z" class="b"/><path d="M422 122.9h-9l-14.3-24.6 -0.2 0.1v24.5H389.4V83.8h9.1l14.3 24.6 0.2-0.1V83.8H422V122.9z" class="b"/></svg>